<?xml version="1.0" ?><svg id="Layer_1_1_" style="enable-background:new 0 0 64 64;" version="1.1" viewBox="0 0 64 64" xml:space="preserve" xmlns="http://www.w3.org/2000/svg" xmlns:xlink="http://www.w3.org/1999/xlink"><rect height="4" width="10" x="18" y="21"/><path d="M27,62v-5h2v-4.881C37.672,49.536,44,41.511,44,32c0-11.598-9.402-21-21-21S2,20.402,2,32c0,9.511,6.328,17.536,15,20.119  V57h2v5H27z M7,32c0-8.837,7.163-16,16-16s16,7.163,16,16s-7.163,16-16,16S7,40.837,7,32z"/><path d="M56,29c0,1.657,1.343,3,3,3s3-1.343,3-3V17h-6V29z"/><path d="M44.629,28C44.868,29.298,45,30.634,45,32h11.726C55.698,31.39,55,30.28,55,29V2H32v9.933  c2.252,1.014,4.302,2.394,6.076,4.067H52v2H39.958c0.775,0.937,1.469,1.942,2.082,3H52v2h-8.933c0.435,0.965,0.801,1.967,1.094,3H52  v2H44.629z M45,6h7v2h-7V6z M43,13h-8V6h8V13z M45,13v-2h7v2H45z"/><path d="M21,36.875c0-1.105,0.895-2,2-2s2,0.895,2,2c0,0.738-0.405,1.376-1,1.723V44l7-10l-4-8h-8l-4,8l7,10v-5.402  C21.405,38.251,21,37.613,21,36.875z"/></svg>